# xmcd CD database file
#
# Track frame offsets:
#	150
#	15640
#	25560
#
# Disc length: 538 seconds
#
# Revision: 0
# Processed by: cddbd v1.5.1PL2 Copyright (c) Steve Scherf et al.
# Submitted via: CDex 1.51
#
DISCID=13021803
DTITLE=ミチカ - 少女刺繍
DYEAR=1900
DGENRE=未分類 (日本)
TTITLE0=少女刺繍 la fillette
TTITLE1=とおりゃんせ〜かこめかこめ riddle me
TTITLE2=恋死館殺人事件 mayim mayim mystery
EXTD=
EXTT0=
EXTT1=
EXTT2=
PLAYORDER=
